<svg width="50" height="48" viewBox="0 0 50 48" fill="none" xmlns="http://www.w3.org/2000/svg">
<g id="S3">
<rect id="Rectangle 360" width="50" height="48" rx="24" fill="#4B0601"/>
<path id="Vector 67" d="M14.7826 22.7085C13.9542 22.7085 13.2826 23.3801 13.2826 24.2085C13.2826 25.0369 13.9542 25.7085 14.7826 25.7085L14.7826 22.7085ZM36.7128 25.2692C37.2986 24.6834 37.2986 23.7336 36.7128 23.1478L27.1669 13.6019C26.5811 13.0161 25.6313 13.0161 25.0456 13.6019C24.4598 14.1877 24.4598 15.1374 25.0456 15.7232L33.5308 24.2085L25.0456 32.6938C24.4598 33.2796 24.4598 34.2293 25.0456 34.8151C25.6313 35.4009 26.5811 35.4009 27.1669 34.8151L36.7128 25.2692ZM14.7826 25.7085L35.6522 25.7085L35.6522 22.7085L14.7826 22.7085L14.7826 25.7085Z" fill="white"/>
</g>
</svg>
