<svg width="50" height="48" viewBox="0 0 50 48" fill="none" xmlns="http://www.w3.org/2000/svg">
<g id="S3">
<rect id="Rectangle 360" width="50" height="48" rx="24" transform="matrix(-1 0 0 1 50 0)" fill="#4B0601"/>
<path id="Vector 67" d="M35.2175 22.7085C36.046 22.7085 36.7175 23.3801 36.7175 24.2085C36.7175 25.0369 36.046 25.7085 35.2175 25.7085L35.2175 22.7085ZM13.2873 25.2692C12.7015 24.6834 12.7015 23.7336 13.2873 23.1478L22.8332 13.6019C23.419 13.0161 24.3688 13.0161 24.9546 13.6019C25.5404 14.1877 25.5404 15.1374 24.9546 15.7232L16.4693 24.2085L24.9546 32.6938C25.5404 33.2796 25.5404 34.2293 24.9546 34.8151C24.3688 35.4009 23.419 35.4009 22.8332 34.8151L13.2873 25.2692ZM35.2175 25.7085L14.348 25.7085L14.348 22.7085L35.2175 22.7085L35.2175 25.7085Z" fill="white"/>
</g>
</svg>
