<svg width="60" height="56" viewBox="0 0 60 56" fill="none" xmlns="http://www.w3.org/2000/svg">
<g id="play" clip-path="url(#clip0_9_796)">
<path id="path3785" d="M44.9944 27.9947L22.4944 41.9947V13.9948L44.9944 27.9947ZM29.9944 0C13.4481 0 0 12.5515 0 27.9948C0 43.438 13.4481 55.9895 29.9944 55.9895C46.5408 55.9895 59.9888 43.438 59.9888 27.9948C59.9888 12.5515 46.5408 0 29.9944 0ZM29.9944 3.48959C44.5141 3.48959 56.25 14.4431 56.25 27.9948C56.25 41.5464 44.5141 52.4999 29.9944 52.4999C15.4747 52.4999 3.73884 41.5464 3.73884 27.9948C3.73884 14.4431 15.4747 3.48959 29.9944 3.48959Z" fill="#FDB62E"/>
</g>
<defs>
<clipPath id="clip0_9_796">
<rect width="60" height="56" fill="white"/>
</clipPath>
</defs>
</svg>
